<?xml version="1.0" encoding="UTF-8"?>
<svg width="95px" height="91px" viewBox="0 0 95 91" version="1.1" xmlns="http://www.w3.org/2000/svg" xmlns:xlink="http://www.w3.org/1999/xlink">
    <!-- Generator: Sketch 42 (36781) - http://www.bohemiancoding.com/sketch -->
    <title>upload_photo_icon</title>
    <desc>Created with Sketch.</desc>
    <defs>
        <linearGradient x1="50%" y1="14.4228182%" x2="50%" y2="100%" id="linearGradient-1">
            <stop stop-color="#333333" offset="0%"></stop>
            <stop stop-color="#191A19" offset="53.4568939%"></stop>
            <stop stop-color="#1B1F1C" offset="100%"></stop>
        </linearGradient>
        <linearGradient x1="50%" y1="0%" x2="50%" y2="100%" id="linearGradient-2">
            <stop stop-color="#333333" offset="0%"></stop>
            <stop stop-color="#20274C" offset="100%"></stop>
        </linearGradient>
    </defs>
    <g id="Icons" stroke="none" stroke-width="1" fill="none" fill-rule="evenodd">
        <g id="120---iPhone" transform="translate(-216.000000, -30.000000)">
            <g id="button">
                <g id="Group-2">
                    <g id="Group-3" transform="translate(137.000000, 47.000000)"></g>
                </g>
            </g>
            <g id="upload_photo_icon" transform="translate(217.000000, 31.000000)">
                <ellipse id="Oval" stroke="#000000" cx="46.5" cy="44.5" rx="46.5" ry="44.5"></ellipse>
                <g id="camera" transform="translate(22.000000, 25.000000)">
                    <polygon id="Rectangle-2" fill="#333333" points="15 0 32 0 34.6991884 9 12.3008116 9"></polygon>
                    <rect id="Rectangle" fill="#333333" x="0" y="6" width="47" height="32" rx="4"></rect>
                    <circle id="Oval-4" stroke="#FFFFFF" stroke-width="2" cx="23.5" cy="22.5" r="10.5"></circle>
                </g>
                <g id="phone" transform="translate(31.000000, 15.000000)">
                    <polygon id="antenna-edging" stroke="#F88989" points="2.24692716 49.8179308 26.5137405 49.8179308 26.5137405 8.50493789 2.24692716 8.50493789"></polygon>
                    <path d="M0.269631259,3.83863949 L0.269631259,16 L0.269631259,48 L0.269631259,54.3113715 C0.269631259,56.2211799 1.87931514,57.7693855 3.86538232,57.7693855 L24.8952853,57.7693855 C26.8811637,57.7693855 28.4910364,56.2213858 28.4910364,54.3113715 C28.4910364,54.3113715 28.4910364,50.1236845 28.4910364,48 C28.4910364,37.3532273 28.4910364,26.6766137 28.4910364,16 L28.4910364,3.83863949 C28.4910364,1.92883108 26.8813525,0.380625478 24.8952853,0.380625478 L3.86538232,0.380625478 C1.87950388,0.380625478 0.269631259,1.92862514 0.269631259,3.83863949 Z" id="Path" stroke="#333333"></path>
                    <path d="M0.269631259,16 L0.269631259,48 M28.4910364,48 C28.4910364,37.3532273 28.4910364,26.6766137 28.4910364,16" id="Path" stroke="#FFFFFF"></path>
                    <polygon id="view-port" stroke="#333333" points="2.24692716 49.8179308 26.5137405 49.8179308 26.5137405 8.50493789 2.24692716 8.50493789"></polygon>
                    <path d="M2.24692716,16 L2.24692716,48 M26.5137405,48 L26.5137405,16" id="view-port" stroke="#FFFFFF"></path>
                    <polygon id="Rectangle-8" fill="#000000" points="19.1438194 0.40074254 23.6376737 0.40074254 23.6376737 0.121338912 19.1438194 0.121338912"></polygon>
                    <path d="M16.9867693,53.9665159 C16.9867693,52.5822489 15.8198285,51.460079 14.3803338,51.460079 C12.9408391,51.460079 11.7738983,52.5822489 11.7738983,53.9665159 C11.7738983,55.3507828 12.9408391,56.4729527 14.3803338,56.4729527 C15.8198285,56.4729527 16.9867693,55.3507828 16.9867693,53.9665159 Z" id="home" fill="url(#linearGradient-1)"></path>
                    <path d="M12.0435296,5.60957123 C12.0435296,5.77663795 12.1846747,5.91207223 12.3574353,5.91207223 L16.4032324,5.91207223 C16.5765977,5.91207223 16.7171381,5.77629794 16.7171381,5.60957123 C16.7171381,5.44250451 16.5759929,5.30707024 16.4032324,5.30707024 L12.3574353,5.30707024 C12.1840699,5.30707024 12.0435296,5.44284453 12.0435296,5.60957123 Z" id="ear-piece" fill="#333333"></path>
                    <path d="M14.9195963,3.23277771 C14.9195963,2.94637763 14.6781603,2.71420458 14.3803338,2.71420458 C14.0825073,2.71420458 13.8410713,2.94637763 13.8410713,3.23277771 C13.8410713,3.51917778 14.0825073,3.75135084 14.3803338,3.75135084 C14.6781603,3.75135084 14.9195963,3.51917778 14.9195963,3.23277771 Z" id="Oval-2" fill="#000000"></path>
                    <path d="M14.682064,3.29275635 C14.682064,3.16416437 14.5742801,3.05992 14.4413218,3.05992 C14.3083636,3.05992 14.2005796,3.16416437 14.2005796,3.29275635 C14.2005796,3.42134833 14.3083636,3.52559271 14.4413218,3.52559271 C14.5742801,3.52559271 14.682064,3.42134833 14.682064,3.29275635 Z" id="Oval-3" fill="url(#linearGradient-2)" opacity="0.545170455"></path>
                </g>
                <g id="arrow" transform="translate(38.000000, 38.000000)" fill="#FFFFFF">
                    <polygon id="Triangle" points="7.5 0 15 10.45 0 10.45"></polygon>
                    <rect id="Rectangle" x="4.6875" y="9.5" width="5.625" height="9.5"></rect>
                </g>
            </g>
        </g>
    </g>
</svg>