<?xml version="1.0" encoding="UTF-8"?>
<svg width="206px" height="216px" viewBox="0 0 206 216" version="1.1" xmlns="http://www.w3.org/2000/svg" xmlns:xlink="http://www.w3.org/1999/xlink">
    <!-- Generator: Sketch 42 (36781) - http://www.bohemiancoding.com/sketch -->
    <title>Group 2</title>
    <desc>Created with Sketch.</desc>
    <defs>
        <rect id="path-1" x="0" y="0" width="206" height="216"></rect>
        <mask id="mask-2" maskContentUnits="userSpaceOnUse" maskUnits="objectBoundingBox" x="0" y="0" width="206" height="216" fill="white">
            <use xlink:href="#path-1"></use>
        </mask>
    </defs>
    <g id="Logo" stroke="none" stroke-width="1" fill="none" fill-rule="evenodd">
        <g id="Logo-4.1" transform="translate(-247.000000, -242.000000)">
            <g id="Group-2" transform="translate(247.000000, 242.000000)">
                <use id="Rectangle-4" stroke="#333333" mask="url(#mask-2)" stroke-width="6" xlink:href="#path-1"></use>
                <g id="arrows" transform="translate(100.000000, 14.000000)" opacity="0.5">
                    <g id="arrow" transform="translate(42.000000, 71.000000) rotate(-180.000000) translate(-42.000000, -71.000000) " fill="#14DA9E">
                        <polygon id="Triangle" points="41.4615385 142 2.27373675e-13 95.9064748 83.4615385 95.9064748"></polygon>
                        <rect id="Rectangle-3" x="11.8461538" y="2.27373675e-13" width="60.3076923" height="95.9064748"></rect>
                    </g>
                    <g id="arrow" transform="translate(11.000000, 46.000000)" fill="#5386E4">
                        <polygon id="Triangle" points="41.4615385 142 0 95.9064748 83.4615385 95.9064748"></polygon>
                        <rect id="Rectangle-3" x="11.8461538" y="0" width="60.3076923" height="95.9064748"></rect>
                    </g>
                </g>
                <g id="NM" transform="translate(12.000000, 14.000000)" stroke="#333333" fill="#333333">
                    <path d="M88,2 L88,95 C88,96 73.5,95 71.6634437,95 C71.6420709,95 71.6179052,94.9966521 71.5909897,94.9900065 C68.0457159,94.1146578 16.7912438,36.0251505 16.3370686,35.4695408 L16.3370686,96 L0,96 L0,0 C0.640672559,0.719778669 71.6634437,78.5 71.6634437,78.5 L71.6634437,58.8622306 L71.6634437,2 L88,2 Z" id="Path"></path>
                    <path d="M0,95 C0,95 0.585946085,95.6534666 1.62183073,96.8089143 C9.47845647,105.572361 43.2173636,143.211784 43.5,143.635739 C43.6593252,143.8199 87.621738,95.5295667 88,95 L88,189 L72.6972821,189 L72.6972821,143.635739 C72.6972821,142.995936 72.6972821,128.436739 72.6972821,128.276789 L43.5,161 C43.100123,160.520148 14.9153398,128.59669 14.7553889,128.276789 C14.7553889,128.436739 14.7553889,142.995936 14.7553889,143.635739 L14.7553889,189 L0,189 L0,95 Z" id="Path"></path>
                </g>
            </g>
        </g>
    </g>
</svg>
