<?xml version="1.0" encoding="UTF-8"?>
<svg width="299px" height="352px" viewBox="0 0 299 352" version="1.1" xmlns="http://www.w3.org/2000/svg" xmlns:xlink="http://www.w3.org/1999/xlink">
    <!-- Generator: Sketch 42 (36781) - http://www.bohemiancoding.com/sketch -->
    <title>wrapper</title>
    <desc>Created with Sketch.</desc>
    <defs></defs>
    <g id="Pages_high_fidelity" stroke="none" stroke-width="1" fill="none" fill-rule="evenodd">
        <g id="Splash_1.0" transform="translate(-52.000000, -115.000000)">
            <g id="wrapper" transform="translate(53.000000, 116.000000)">
                <g id="Near_Miss_Logo">
                    <g id="arrows" transform="translate(40.000000, 111.000000)" opacity="0.5">
                        <g id="arrow" transform="translate(42.500000, 71.500000) rotate(-180.000000) translate(-42.500000, -71.500000) " fill="#14DA9E">
                            <polygon id="Triangle" points="42.2258065 142.093525 1.42108547e-14 96 85 96"></polygon>
                            <rect id="Rectangle-3" x="12.75" y="2.27373675e-13" width="59.25" height="95.9064748"></rect>
                        </g>
                        <g id="arrow" transform="translate(0.000000, 47.000000)" fill="#5386E4">
                            <polygon id="Triangle" points="42.2258065 142 0 95.9064748 85 95.9064748"></polygon>
                            <rect id="Rectangle-3" x="12.5865385" y="0" width="72.4134615" height="95.9064748"></rect>
                        </g>
                    </g>
                    <g id="nearMiss1" stroke="#333333">
                        <g id="crane" transform="translate(33.000000, 0.000000)" stroke-width="3">
                            <polyline id="Path-2" points="8.5 345 8.5 251.5 8.5 65.5 8.5 0.498076952 92.5 0.498076952 93.5 63.5"></polyline>
                            <path d="M50.5,345 L50.5,65.5" id="Path-2"></path>
                            <polyline id="Path-2" points="93.5 345 93.5 252 93.5 62.5"></polyline>
                            <path d="M7,64 L92.5,64" id="Path-3"></path>
                            <polyline id="Path-4" points="8.5 157 93 64 8.5 1"></polyline>
                            <path d="M8,252 L92.5,159" id="Path-4" transform="translate(50.250000, 205.500000) scale(-1, 1) translate(-50.250000, -205.500000) "></path>
                            <path d="M9.84538088,249.968989 L92.5,159" id="Path-4"></path>
                            <path d="M11.1869168,342.593097 L93.5,252 L11.1869168,342.593097 Z" id="Path-4"></path>
                            <path d="M8.79318151,342.852696 L90.0432396,253.429555" id="Path-4" transform="translate(49.418211, 298.141126) rotate(-84.000000) translate(-49.418211, -298.141126) "></path>
                            <path d="M8.5,252.5 L95,252.5 L78.5,252.5 L8.5,252.5 Z" id="Path-6"></path>
                            <path d="M7,156.5 L94.5,156.5" id="Path-5"></path>
                            <polyline id="Path-4" transform="translate(50.750000, 78.750000) scale(-1, 1) translate(-50.750000, -78.750000) " points="8.5 157 93 64 8.5 0.5"></polyline>
                        </g>
                        <g id="top_crane" transform="translate(0.000000, 30.000000)">
                            <path d="M1,6 L1,33.5 L296,33.5" id="Path-7" stroke-width="3"></path>
                            <path d="M1,7.5 L296,7.5 L296,35" id="Path-7" stroke-width="3"></path>
                            <polyline id="Path-8" stroke-width="2" points="1.5 33.5 27 7.5 54.5 33.5 81 7.5 108 33.5 135 7.5 162 33.5 189 7.5 216 33.5 243 7.5 270 33.5 297 7"></polyline>
                            <polyline id="Path-8" stroke-width="2" transform="translate(148.169406, 20.752495) rotate(-180.000000) translate(-148.169406, -20.752495) " points="-5.68434189e-14 8.00249491 27.5 34.0024949 54 8.00249491 81 34.0024949 108 8.00249491 135 34.0024949 162 8.00249491 189 34.0024949 216 8.00249491 243 34.0024949 270 7.50249491 296.338812 34.0024949"></polyline>
                            <g id="Group" transform="translate(63.000000, 0.000000)" stroke-width="3">
                                <circle id="Oval" fill="#FFFFFF" cx="20" cy="20" r="20"></circle>
                                <circle id="Oval" cx="20" cy="20" r="6"></circle>
                            </g>
                        </g>
                    </g>
                    <path d="M225.5,185 L225.5,210.711936 C225.5,210.711936 216,218.13992 214,204.634495" id="Path-10" stroke="#14DA9E" stroke-width="4" transform="translate(219.750000, 198.875000) rotate(-5.000000) translate(-219.750000, -198.875000) "></path>
                    <path d="M128,158 L128,251 C128,252 113.5,251 111.663444,251 C111.642071,251 111.617905,250.996652 111.59099,250.990006 C108.045716,250.114658 56.7912438,192.02515 56.3370686,191.469541 L56.3370686,252 L40,252 L40,156 C40.6406726,156.719779 111.663444,234.5 111.663444,234.5 L111.663444,214.862231 L111.663444,158 L128,158 Z M185.327918,244.389774 C182.848681,246.629085 179.849648,248.388518 176.33073,249.668125 C172.811812,250.947731 169.212973,251.587525 165.534104,251.587525 C161.77526,251.587525 158.236401,250.88775 154.917422,249.488181 C151.598442,248.088611 148.719371,246.16923 146.280121,243.72998 C143.840871,241.29073 141.901496,238.451646 140.461939,235.212642 C139.022382,231.973638 138.302614,228.514753 138.302614,224.835885 C138.302614,221.157016 139.022382,217.698131 140.461939,214.459127 C141.901496,211.220123 143.840871,208.381039 146.280121,205.941789 C148.719371,203.502539 151.558455,201.583158 154.797459,200.183588 C158.036463,198.784019 161.455361,198.084245 165.054254,198.084245 C170.812483,198.084245 175.870852,199.823684 180.229512,203.302614 C184.588171,206.781544 187.687172,211.360067 189.526606,217.038321 C187.127344,217.918051 184.34824,218.977709 181.189212,220.217328 C178.030183,221.456947 174.731247,222.756528 171.292304,224.11611 C167.853362,225.475691 164.414471,226.855247 160.975528,228.254816 C157.536586,229.654386 154.377605,230.91398 151.49849,232.033635 C152.858072,234.512873 154.737466,236.512228 157.136728,238.031761 C159.53599,239.551294 162.255113,240.311049 165.294179,240.311049 C167.37354,240.311049 169.472862,239.931171 171.592211,239.171405 C173.711559,238.411638 175.450998,237.391967 176.81058,236.112361 L185.327918,244.389774 Z M175.397688,214.905654 C174.437983,213.146196 172.998448,211.846615 171.079038,211.006873 C169.159628,210.167131 167.280234,209.747266 165.4408,209.747266 C163.281464,209.747266 161.242121,210.167131 159.322712,211.006873 C157.403302,211.846615 155.763831,212.966254 154.404249,214.365823 C153.044667,215.765393 151.965015,217.364877 151.165261,219.164324 C150.365507,220.96377 149.965636,222.823171 149.965636,224.74258 L149.965636,225.22243 C151.965021,224.422676 154.104331,223.562954 156.38363,222.643236 C158.662929,221.723519 160.942194,220.783822 163.221493,219.824117 C165.500792,218.864413 167.68009,217.964703 169.75945,217.124961 C171.838811,216.285219 173.718205,215.545458 175.397688,214.905654 Z M196.617724,225.435697 C196.617724,221.756828 197.337492,218.257957 198.777049,214.938977 C200.216606,211.619998 202.155981,208.720933 204.595231,206.241695 C207.034481,203.762458 209.873565,201.783096 213.112569,200.303551 C216.351573,198.824006 219.77047,198.084245 223.369364,198.084245 C225.768626,198.084245 227.92793,198.384148 229.847339,198.983963 C231.766749,199.583779 233.426214,200.283553 234.825784,201.083307 C236.225353,201.883061 237.324999,202.702797 238.124753,203.542539 C238.924507,204.382281 239.444339,205.042068 239.684265,205.52192 L240.164115,199.403832 L251.320629,199.403832 L251.320629,250.3879 L239.684265,250.3879 L239.684265,247.028949 C239.684265,246.629072 239.704259,246.249195 239.744247,245.889305 C239.784234,245.529416 239.804228,245.2695 239.804228,245.109549 C239.484326,245.509426 238.924507,246.089239 238.124753,246.849006 C237.324999,247.608772 236.245347,248.348533 234.885765,249.068312 C233.526183,249.788091 231.906705,250.407891 230.027283,250.927731 C228.147861,251.447571 225.968564,251.707487 223.489326,251.707487 C219.570531,251.707487 215.971692,250.987719 212.6927,249.548162 C209.413708,248.108605 206.574624,246.189224 204.175362,243.789961 C201.7761,241.390699 199.916699,238.611596 198.597105,235.452567 C197.277511,232.293538 196.617724,228.954615 196.617724,225.435697 Z M208.280746,225.102468 C208.280746,227.341779 208.660623,229.421109 209.420389,231.340519 C210.180156,233.259928 211.259808,234.919393 212.659377,236.318963 C214.058947,237.718532 215.718412,238.818178 217.637822,239.617932 C219.557231,240.417686 221.676548,240.817557 223.995835,240.817557 C226.315121,240.817557 228.434438,240.417686 230.353848,239.617932 C232.273258,238.818178 233.932722,237.698539 235.332292,236.258982 C236.731862,234.819424 237.811513,233.139966 238.57128,231.220556 C239.331046,229.301146 239.710924,227.261804 239.710924,225.102468 C239.710924,222.943132 239.331046,220.923783 238.57128,219.044361 C237.811513,217.164939 236.731862,215.545461 235.332292,214.185879 C233.932722,212.826297 232.273258,211.746646 230.353848,210.946892 C228.434438,210.147138 226.315121,209.747266 223.995835,209.747266 C221.676548,209.747266 219.557231,210.127144 217.637822,210.88691 C215.718412,211.646677 214.058947,212.726329 212.659377,214.125898 C211.259808,215.525468 210.180156,217.164939 209.420389,219.044361 C208.660623,220.923783 208.280746,222.943132 208.280746,225.102468 Z M293.480787,212.959596 C291.241476,212.959596 289.102166,213.239506 287.062793,213.799334 C285.02342,214.359161 283.224,215.218884 281.66448,216.378528 C280.104959,217.538171 278.845366,218.977707 277.885661,220.697178 C276.925956,222.416649 276.446111,224.435998 276.446111,226.755285 L276.446111,250.3879 L264.929709,250.3879 L264.929709,199.403832 L275.00656,199.403832 C275.166511,202.282947 275.346453,204.622192 275.546392,206.421639 C275.74633,208.221086 275.926272,210.240434 276.086223,212.479746 C277.125903,210.240434 278.525452,208.241079 280.284911,206.48162 C282.04437,204.722161 283.863783,203.222645 285.743205,201.983026 C287.622627,200.743407 289.482028,199.783717 291.321462,199.103926 C293.160896,198.424135 294.720393,198.084245 296,198.084245 L293.480787,212.959596 Z M40,251 C40,251 40.5859461,251.653467 41.6218307,252.808914 C49.4784565,261.572361 83.2173636,299.211784 83.5,299.635739 C83.6593252,299.8199 127.621738,251.529567 128,251 L128,345 L112.697282,345 L112.697282,299.635739 C112.697282,298.995936 112.697282,284.436739 112.697282,284.276789 L83.5,317 C83.100123,316.520148 54.9153398,284.59669 54.7553889,284.276789 C54.7553889,284.436739 54.7553889,298.995936 54.7553889,299.635739 L54.7553889,345 L40,345 L40,251 Z M143.301052,272.49724 C143.301052,270.41788 144.060807,268.698434 145.580339,267.338852 C147.099872,265.979271 148.739343,265.29949 150.498802,265.29949 C152.258261,265.29949 153.877739,265.979271 155.357284,267.338852 C156.836829,268.698434 157.576591,270.41788 157.576591,272.49724 C157.576591,274.656576 156.836829,276.396015 155.357284,277.71561 C153.877739,279.035204 152.258261,279.694991 150.498802,279.694991 C148.739343,279.694991 147.099872,279.035204 145.580339,277.71561 C144.060807,276.396015 143.301052,274.656576 143.301052,272.49724 Z M156.483599,344.608039 L144.967198,344.608039 L144.967198,293.623972 L156.483599,293.623972 L156.483599,344.608039 Z M199.136936,297.716026 C198.657084,298.435805 198.077271,299.255541 197.39748,300.175258 C196.717689,301.094975 196.057902,301.954698 195.418099,302.754452 C194.778295,303.554206 194.238469,304.25398 193.798605,304.853796 L193.138811,305.753515 L192.538998,305.333646 C192.139121,305.053732 191.559308,304.753829 190.799542,304.433927 C190.039775,304.114025 189.160059,303.814122 188.160367,303.534208 C187.160674,303.254294 186.141003,303.114339 185.101323,303.114339 C183.981667,303.114339 182.802047,303.374255 181.562428,303.894096 C180.32281,304.413936 179.703009,305.473594 179.703009,307.073102 C179.703009,308.432684 180.242835,309.572317 181.322503,310.492034 C182.402171,311.411751 183.721746,312.25148 185.281266,313.011246 C186.840787,313.771013 188.560232,314.550761 190.439654,315.350515 C192.319076,316.15027 194.038522,317.149947 195.598042,318.349578 C197.157563,319.549209 198.477137,321.048726 199.556805,322.848172 C200.636473,324.647619 201.176299,326.866903 201.176299,329.506092 C201.176299,331.825379 200.756434,333.944695 199.916693,335.864105 C199.076951,337.783515 197.877338,339.422986 196.317817,340.782568 C194.758297,342.14215 192.898897,343.221802 190.739561,344.021556 C188.580225,344.82131 186.141011,345.221181 183.421847,345.221181 C180.142856,345.221181 176.963881,344.661361 173.884828,343.541706 C170.805774,342.42205 168.386555,340.822566 166.627096,338.743205 C167.186924,338.103402 167.866704,337.30366 168.666458,336.343955 C169.466212,335.38425 170.225967,334.464547 170.945746,333.584817 C171.665525,332.705088 172.285325,331.965326 172.805165,331.365511 L173.584921,330.465792 C173.584921,330.385817 173.844838,330.525771 174.364678,330.885661 C174.884518,331.24555 175.584292,331.665415 176.464022,332.145267 C177.343751,332.62512 178.383416,333.064978 179.583047,333.464855 C180.782678,333.864732 182.022278,334.064667 183.301885,334.064667 C185.30127,334.064667 186.840774,333.624809 187.920442,332.74508 C189.00011,331.86535 189.539935,330.785698 189.539935,329.506092 C189.539935,328.226485 189.00011,327.186821 187.920442,326.387067 C186.840774,325.587312 185.521199,324.847551 183.961679,324.16776 C182.402158,323.487969 180.682713,322.748208 178.803291,321.948454 C176.923869,321.1487 175.204423,320.149022 173.644903,318.949391 C172.085382,317.74976 170.765808,316.210256 169.68614,314.330834 C168.606472,312.451412 168.066646,310.072179 168.066646,307.193065 C168.066646,304.31395 168.586478,301.914724 169.626158,299.995314 C170.665839,298.075904 172.005407,296.516407 173.644903,295.316776 C175.284398,294.117145 177.063825,293.257422 178.983234,292.737582 C180.902644,292.217742 182.782038,291.957826 184.621472,291.957826 C187.10071,291.957826 189.679878,292.457664 192.359054,293.457357 C195.038231,294.45705 197.297502,295.876592 199.136936,297.716026 Z M242.456732,297.716026 C241.97688,298.435805 241.397067,299.255541 240.717276,300.175258 C240.037485,301.094975 239.377698,301.954698 238.737894,302.754452 C238.098091,303.554206 237.558265,304.25398 237.1184,304.853796 L236.458607,305.753515 L235.858794,305.333646 C235.458917,305.053732 234.879104,304.753829 234.119338,304.433927 C233.359571,304.114025 232.479855,303.814122 231.480162,303.534208 C230.48047,303.254294 229.460799,303.114339 228.421118,303.114339 C227.301463,303.114339 226.121843,303.374255 224.882224,303.894096 C223.642605,304.413936 223.022805,305.473594 223.022805,307.073102 C223.022805,308.432684 223.562631,309.572317 224.642299,310.492034 C225.721967,311.411751 227.041542,312.25148 228.601062,313.011246 C230.160583,313.771013 231.880028,314.550761 233.75945,315.350515 C235.638872,316.15027 237.358318,317.149947 238.917838,318.349578 C240.477359,319.549209 241.796933,321.048726 242.876601,322.848172 C243.956269,324.647619 244.496095,326.866903 244.496095,329.506092 C244.496095,331.825379 244.07623,333.944695 243.236489,335.864105 C242.396747,337.783515 241.197134,339.422986 239.637613,340.782568 C238.078093,342.14215 236.218692,343.221802 234.059356,344.021556 C231.90002,344.82131 229.460807,345.221181 226.741643,345.221181 C223.462652,345.221181 220.283677,344.661361 217.204624,343.541706 C214.12557,342.42205 211.706351,340.822566 209.946892,338.743205 C210.506719,338.103402 211.1865,337.30366 211.986254,336.343955 C212.786008,335.38425 213.545763,334.464547 214.265542,333.584817 C214.985321,332.705088 215.605121,331.965326 216.124961,331.365511 L216.904717,330.465792 C216.904717,330.385817 217.164633,330.525771 217.684474,330.885661 C218.204314,331.24555 218.904088,331.665415 219.783818,332.145267 C220.663547,332.62512 221.703212,333.064978 222.902843,333.464855 C224.102474,333.864732 225.342074,334.064667 226.621681,334.064667 C228.621066,334.064667 230.160569,333.624809 231.240237,332.74508 C232.319905,331.86535 232.859731,330.785698 232.859731,329.506092 C232.859731,328.226485 232.319905,327.186821 231.240237,326.387067 C230.160569,325.587312 228.840995,324.847551 227.281475,324.16776 C225.721954,323.487969 224.002509,322.748208 222.123087,321.948454 C220.243664,321.1487 218.524219,320.149022 216.964699,318.949391 C215.405178,317.74976 214.085604,316.210256 213.005936,314.330834 C211.926268,312.451412 211.386442,310.072179 211.386442,307.193065 C211.386442,304.31395 211.906274,301.914724 212.945954,299.995314 C213.985635,298.075904 215.325203,296.516407 216.964699,295.316776 C218.604194,294.117145 220.383621,293.257422 222.30303,292.737582 C224.22244,292.217742 226.101834,291.957826 227.941268,291.957826 C230.420506,291.957826 232.999674,292.457664 235.67885,293.457357 C238.358027,294.45705 240.617298,295.876592 242.456732,297.716026 Z" id="NearMiss" fill="#333333"></path>
                    <path d="M224.091822,212.085692 C221.150721,213.372142 216.234365,213.977044 214.859945,204.695977" id="Path-10" stroke="#14DA9E" stroke-width="4" transform="translate(219.475883, 208.753730) rotate(-5.000000) translate(-219.475883, -208.753730) "></path>
                    <path d="M182.361333,62.7485295 C186.637134,83.5116553 203.18746,165.949436 203.18746,165.949436 C205.158386,175.950982 212.011598,185 222.896725,185 C233.781851,185 241.620526,176.427246 242.60599,165.949436 C242.60599,165.949436 250.007899,97.7709654 253.851625,62.3666724" id="Oval-2" stroke="#333333" stroke-width="2"></path>
                </g>
            </g>
        </g>
    </g>
</svg>