<?xml version="1.0" encoding="UTF-8"?>
<svg width="344px" height="387px" viewBox="0 0 344 387" version="1.1" xmlns="http://www.w3.org/2000/svg" xmlns:xlink="http://www.w3.org/1999/xlink">
    <!-- Generator: Sketch 42 (36781) - http://www.bohemiancoding.com/sketch -->
    <title>Logo</title>
    <desc>Created with Sketch.</desc>
    <defs></defs>
    <g id="Pages_high_fidelity" stroke="none" stroke-width="1" fill="none" fill-rule="evenodd">
        <g id="SUCCESS" transform="translate(-16.000000, -189.000000)">
            <g id="Logo" transform="translate(17.000000, 190.000000)">
                <g id="nearMiss1" stroke="#333333">
                    <g id="crane" transform="translate(38.000000, 0.000000)" stroke-width="3">
                        <polyline id="Path-2" points="9.78787879 396.974227 9.78787879 289.388458 9.78787879 75.3675706 9.78787879 0.573112211 106.515152 0.573112211 107.666667 73.0662707"></polyline>
                        <path d="M58.1515152,396.974227 L58.1515152,75.3675706" id="Path-2"></path>
                        <polyline id="Path-2" points="107.666667 396.974227 107.666667 289.963783 107.666667 71.9156208"></polyline>
                        <path d="M8.06060606,73.6415957 L106.515152,73.6415957" id="Path-3"></path>
                        <polyline id="Path-4" points="9.78787879 180.652039 107.090909 73.6415957 9.78787879 1.15064993"></polyline>
                        <path d="M9.21212121,289.963783 L106.515152,182.953339" id="Path-4" transform="translate(57.863636, 236.458561) scale(-1, 1) translate(-57.863636, -236.458561) "></path>
                        <path d="M11.3371053,287.6268 L106.515152,182.953339" id="Path-4"></path>
                        <path d="M12.8819042,394.204725 L107.666667,289.963783 L12.8819042,394.204725 Z" id="Path-4"></path>
                        <path d="M10.1254817,394.503432 L103.686155,291.608701" id="Path-4" transform="translate(56.905818, 343.056066) rotate(-84.000000) translate(-56.905818, -343.056066) "></path>
                        <path d="M9.78787879,290.539108 L109.393939,290.539108 L90.3939394,290.539108 L9.78787879,290.539108 Z" id="Path-6"></path>
                        <path d="M8.06060606,180.076714 L108.818182,180.076714" id="Path-5"></path>
                        <polyline id="Path-4" transform="translate(58.439394, 90.613682) scale(-1, 1) translate(-58.439394, -90.613682) " points="9.78787879 180.652039 107.090909 73.6415957 9.78787879 0.575324966"></polyline>
                    </g>
                    <g id="top_crane" transform="translate(0.000000, 34.519498)">
                        <path d="M1.15151515,6.9038996 L1.15151515,38.5467727 L340.848485,38.5467727" id="Path-7" stroke-width="3"></path>
                        <path d="M1.15151515,8.6298745 L340.848485,8.6298745 L340.848485,40.2727476" id="Path-7" stroke-width="3"></path>
                        <polyline id="Path-8" stroke-width="2" points="1.72727273 38.5467727 31.0909091 8.6298745 62.7575758 38.5467727 93.2727273 8.6298745 124.363636 38.5467727 155.454545 8.6298745 186.545455 38.5467727 217.636364 8.6298745 248.727273 38.5467727 279.818182 8.6298745 310.909091 38.5467727 342 8.05454953"></polyline>
                        <polyline id="Path-8" stroke-width="2" transform="translate(170.619316, 23.878857) rotate(-180.000000) translate(-170.619316, -23.878857) " points="-1.13686838e-13 9.20807023 31.6666667 39.1249685 62.1818182 9.20807023 93.2727273 39.1249685 124.363636 9.20807023 155.454545 39.1249685 186.545455 9.20807023 217.636364 39.1249685 248.727273 9.20807023 279.818182 39.1249685 310.909091 8.63274527 341.238632 39.1249685"></polyline>
                        <g id="Group" transform="translate(72.545455, 0.000000)">
                            <ellipse id="Oval" stroke-width="4" fill="#FFFFFF" cx="23.030303" cy="23.0129987" rx="23.030303" ry="23.0129987"></ellipse>
                            <ellipse id="Oval" stroke-width="3" cx="23.030303" cy="23.0129987" rx="6.90909091" ry="6.9038996"></ellipse>
                        </g>
                    </g>
                </g>
                <g id="Group-2" transform="translate(174.000000, 72.000000)">
                    <path d="M85.6666667,105.870238 L85.6666667,135.455675 C85.6666667,135.455675 74.7272727,144.002685 72.4242424,128.462668" id="Path-10" stroke="#69B5D5" stroke-width="4" transform="translate(79.045455, 121.835505) rotate(-5.000000) translate(-79.045455, -121.835505) "></path>
                    <g id="success_icon" transform="translate(0.758242, 131.372231)" stroke="#14DA9E" stroke-width="6">
                        <ellipse id="Oval-3" cx="70.9368132" cy="70.8547379" rx="70.9368132" ry="70.8547379"></ellipse>
                        <polyline id="Path-12" points="25.8893479 71.8743284 55.2964639 101.24742 116.273782 40.3406537"></polyline>
                    </g>
                    <path d="M84.045128,137.036388 C80.6584056,138.516641 74.9971481,139.212672 73.414482,128.533412" id="Path-10" stroke="#69B5D5" stroke-width="4" transform="translate(78.729805, 133.202465) rotate(-5.000000) translate(-78.729805, -133.202465) "></path>
                    <path d="M43.2444266,0.898438898 C50.5504194,37.0485684 59.9734386,83.9497076 59.9734386,83.9497076 C62.2429903,95.4579858 70.1345677,105.870238 82.6689557,105.870238 C95.2033438,105.870238 104.229697,96.0059991 105.364473,83.9497076 C105.364473,83.9497076 110.121633,40.1647638 114.373534,1.03022374" id="Oval-2" stroke="#333333" stroke-width="2"></path>
                </g>
            </g>
        </g>
    </g>
</svg>