<?xml version="1.0" encoding="UTF-8"?>
<svg width="196px" height="183px" viewBox="0 0 196 183" version="1.1" xmlns="http://www.w3.org/2000/svg" xmlns:xlink="http://www.w3.org/1999/xlink">
    <!-- Generator: Sketch 42 (36781) - http://www.bohemiancoding.com/sketch -->
    <title>Group 3@SVG</title>
    <desc>Created with Sketch.</desc>
    <defs>
        <rect id="path-1" x="0" y="0" width="196" height="183" rx="30"></rect>
        <mask id="mask-2" maskContentUnits="userSpaceOnUse" maskUnits="objectBoundingBox" x="0" y="0" width="196" height="183" fill="white">
            <use xlink:href="#path-1"></use>
        </mask>
    </defs>
    <g id="Icons" stroke="none" stroke-width="1" fill="none" fill-rule="evenodd">
        <g id="120---iPhone" transform="translate(-26.000000, -33.000000)" stroke="#FFFFFF">
            <g id="Group-3" transform="translate(26.000000, 33.000000)">
                <use id="Rectangle" mask="url(#mask-2)" stroke-width="4" xlink:href="#path-1"></use>
                <g id="Group-2" transform="translate(18.000000, 19.000000)" stroke-width="2">
                    <g id="Group" transform="translate(111.000000, 59.500000) rotate(-180.000000) translate(-111.000000, -59.500000) translate(62.000000, -0.000000)">
                        <path d="M52.3133333,89.152395 C52.3133333,89.152395 61.1333333,66.3128281 42.2333333,66.3128281 L6.95333333,72.6571522 C6.95333333,72.6571522 -4.38666667,67.5816929 3.17333333,53.6241798 C3.17333333,53.6241798 -4.38666667,40.9355315 4.43333333,33.3223425 C4.43333333,33.3223425 0.653333333,20.6336942 8.21333333,15.5582349 C8.21333333,15.5582349 9.47333333,4.13845144 11.9933333,4.13845144" id="Path-5"></path>
                        <path d="M17.0333333,2.86958661 C17.0333333,2.86958661 82.5533333,-8.55019685 92.6333333,23.1714239 C102.713333,54.8930446 93.8933333,57.4307743 93.8933333,57.4307743 C93.8933333,57.4307743 69.9533333,80.2703412 69.9533333,101.841043 C69.9533333,123.411745 48.5333333,119.605151 47.2733333,114.529692 C46.0133333,109.454232 52.3133333,89.152395 52.3133333,89.152395" id="Path-6"></path>
                        <path d="M2.5,54.5 L6.95333333,53.6241798 C6.95333333,53.6241798 44.7533333,46.0109908 47.2733333,54.8930446 C49.7933333,63.7750984 46.0133333,65.0439633 46.0133333,65.0439633 L44,66.5" id="Path-2"></path>
                        <path d="M4.5,33.3223425 L8.21333333,33.3223425 C8.21333333,33.3223425 51.0533333,33.3223425 48.5333333,43.4732612 C46.0133333,53.6241798 44.5,52 44.5,52" id="Path-3"></path>
                        <path d="M8.5,15.5 L10.7333333,15.5582349 C10.7333333,15.5582349 47.2733333,15.5582349 47.2733333,28.2468832 C47.2733333,40.9355315 42.2333333,37.128937 42.2333333,37.128937" id="Path-4"></path>
                        <path d="M11.5,4.5 L13.2533333,2.86958661 C13.2533333,2.86958661 42.2333333,4.13845144 40.9733333,13.0205052 C39.7133333,21.9025591 38.4533333,19.3648294 38.4533333,19.3648294" id="Path-7"></path>
                    </g>
                    <path d="M65.5,62 C65.5,62 39.5,69.5 37,74.5 C35.6062938,77.2874123 31.2979751,89.1948116 34.5,100 C37.7020249,110.805188 46.0834958,116.074825 52.5,120.5 L60,120 L55.5,128 C55.5,128 53.5,130.5 56,130.5 L84.5,113" id="Path-32"></path>
                    <path d="M36.5,76.5 C36.5,76.5 4,78.5 0.5,77.5" id="Path-36"></path>
                    <path d="M45,115 C45,115 8,122 7,123.5" id="Path-37"></path>
                    <path d="M60.93161,64 C60.93161,64 49.93161,99 80.43161,115.5" id="Path-38"></path>
                </g>
            </g>
        </g>
    </g>
</svg>